<svg xmlns="http://www.w3.org/2000/svg" viewBox="0 0 600 500"><ellipse cx="300" cy="420" rx="190" ry="24" fill="#000" opacity=".12"/><rect x="83" y="320" width="434" height="72" rx="28" fill="#f2b12b"/><rect x="92" y="280" width="416" height="50" rx="15" fill="#6ba74e"/><path fill="#e9c06e" d="M103 262h394c-20-75-89-112-197-112s-177 37-197 112z"/><path fill="#f7d37e" d="M103 262h394c-14 31-88 46-197 46s-183-15-197-46z"/><g fill="#fff"><circle cx="205" cy="197" r="6"/><circle cx="261" cy="176" r="6"/><circle cx="329" cy="188" r="6"/><circle cx="399" cy="207" r="6"/></g><path fill="#ef7a22" d="M96 242h408l-20 74H116z"/><path fill="#fff1d1" d="M115 265h370l-35 18H150z"/></svg>
